<mxfile host="app.diagrams.net" modified="2022-06-20T09:42:12.787Z" agent="5.0 (Macintosh; Intel Mac OS X 10_15_7) AppleWebKit/537.36 (KHTML, like Gecko) Chrome/102.0.0.0 Safari/537.36" etag="XfvkOrxbB0UzVTRKfb-c" version="20.0.1" type="github">
  <diagram id="k0jRU5E6BzxDNnpe_DzY" name="第 1 页">
    <mxGraphModel dx="1186" dy="684" grid="1" gridSize="10" guides="1" tooltips="1" connect="1" arrows="1" fold="1" page="0" pageScale="1" pageWidth="827" pageHeight="1169" math="0" shadow="0">
      <root>
        <mxCell id="0" />
        <mxCell id="1" parent="0" />
        <mxCell id="M1eD5-EgBYjrb2GFnae--4" style="edgeStyle=orthogonalEdgeStyle;rounded=0;orthogonalLoop=1;jettySize=auto;html=1;entryX=0;entryY=0;entryDx=150;entryDy=60;entryPerimeter=0;" edge="1" parent="1" source="M1eD5-EgBYjrb2GFnae--1" target="M1eD5-EgBYjrb2GFnae--3">
          <mxGeometry relative="1" as="geometry" />
        </mxCell>
        <mxCell id="M1eD5-EgBYjrb2GFnae--1" value="&lt;font face=&quot;Comic Sans MS&quot;&gt;EurekaInstanceConfigBean&lt;/font&gt;" style="html=1;sketch=1;fillColor=#d5e8d4;strokeColor=#82b366;" vertex="1" parent="1">
          <mxGeometry x="270" y="60" width="180" height="60" as="geometry" />
        </mxCell>
        <mxCell id="M1eD5-EgBYjrb2GFnae--6" style="edgeStyle=orthogonalEdgeStyle;rounded=0;orthogonalLoop=1;jettySize=auto;html=1;entryX=0;entryY=0;entryDx=150;entryDy=60;entryPerimeter=0;" edge="1" parent="1" source="M1eD5-EgBYjrb2GFnae--2" target="M1eD5-EgBYjrb2GFnae--5">
          <mxGeometry relative="1" as="geometry" />
        </mxCell>
        <mxCell id="M1eD5-EgBYjrb2GFnae--2" value="&lt;font face=&quot;Comic Sans MS&quot;&gt;EurekaClientConfigBean&lt;/font&gt;" style="html=1;sketch=1;fillColor=#d5e8d4;strokeColor=#82b366;" vertex="1" parent="1">
          <mxGeometry x="270" y="190" width="160" height="60" as="geometry" />
        </mxCell>
        <mxCell id="M1eD5-EgBYjrb2GFnae--3" value="对应的是当前eureka实例的配置参数" style="shape=note;whiteSpace=wrap;html=1;backgroundOutline=1;darkOpacity=0.05;fontFamily=Comic Sans MS;size=0;sketch=1;fillColor=#fff2cc;strokeColor=#d6b656;" vertex="1" parent="1">
          <mxGeometry x="50" y="50" width="150" height="120" as="geometry" />
        </mxCell>
        <mxCell id="M1eD5-EgBYjrb2GFnae--5" value="对应的是一个eurekaClient对应的配置参数" style="shape=note;whiteSpace=wrap;html=1;backgroundOutline=1;darkOpacity=0.05;fontFamily=Comic Sans MS;size=0;sketch=1;fillColor=#fff2cc;strokeColor=#d6b656;" vertex="1" parent="1">
          <mxGeometry x="50" y="200" width="150" height="120" as="geometry" />
        </mxCell>
      </root>
    </mxGraphModel>
  </diagram>
</mxfile>
